<svg width="47" height="66" viewBox="0 0 47 66" fill="none" xmlns="http://www.w3.org/2000/svg">
<path d="M23.8994 33.9477C30.7803 33.9477 36.3584 28.3697 36.3584 21.4888C36.3584 14.6079 30.7803 9.02979 23.8994 9.02979C17.0185 9.02979 11.4404 14.6079 11.4404 21.4888C11.4404 28.3697 17.0185 33.9477 23.8994 33.9477Z" fill="#907EFF"/>
<path d="M45.1192 21.581C45.1192 23.6717 41.0139 25.0814 40.4018 26.9662C39.7685 28.9197 42.2381 32.4729 41.0561 34.099C39.8635 35.7409 35.7107 34.4844 34.0696 35.6776C32.4443 36.8602 32.3652 41.2053 30.4128 41.8389C28.5289 42.4513 25.9222 39.0037 23.8326 39.0037C21.743 39.0037 19.1362 42.4513 17.2524 41.8389C15.3 41.2053 15.2208 36.8602 13.5955 35.6776C11.9545 34.4844 7.80161 35.7409 6.60905 34.099C5.42704 32.4729 7.89659 28.9197 7.26337 26.9662C6.65126 25.0814 2.5459 23.6665 2.5459 21.581C2.5459 19.4956 6.65126 18.0806 7.26337 16.1958C7.89659 14.2424 5.42704 10.6892 6.60905 9.06305C7.80161 7.4211 11.9545 8.67764 13.5955 7.48445C15.2208 6.30182 15.3 1.9567 17.2524 1.32315C19.1362 0.710711 21.743 4.1583 23.8326 4.1583C25.9222 4.1583 28.5289 0.710711 30.4128 1.32315C32.3652 1.9567 32.4443 6.30182 34.0696 7.48445C35.7107 8.67764 39.8635 7.4211 41.0561 9.06305C42.2381 10.6892 39.7685 14.2424 40.4018 16.1958C41.0086 18.0754 45.1192 19.4903 45.1192 21.581Z" stroke="white" stroke-width="2.5" stroke-miterlimit="10"/>
<path d="M23.5 42.7311L32.4231 63.1262C33.0194 64.4884 34.8663 64.6415 35.3253 63.3691L36.7976 58.4749C37.0825 57.6777 38.0007 57.3662 38.8239 57.7885L43.631 60.5075C44.945 61.1781 46.1903 59.9901 45.5993 58.6333L35.2304 34.9331" stroke="white" stroke-width="2.5" stroke-miterlimit="10"/>
<path d="M24.9884 39.331L14.5772 63.1262C13.981 64.4884 12.1341 64.6415 11.675 63.3691L10.2028 58.4749C9.91782 57.6777 8.99965 57.3662 8.17647 57.7885L3.36929 60.5075C2.05537 61.1781 0.810037 59.9901 1.40104 58.6333L11.7753 34.9331" stroke="white" stroke-width="2.5" stroke-miterlimit="10"/>
</svg>
