<svg width="53" height="74" viewBox="0 0 53 74" fill="none" xmlns="http://www.w3.org/2000/svg">
<path d="M51.3713 26.577C51.3713 11.9886 39.1673 0.281291 24.52 1.31352C12.219 2.17589 2.23221 12.2107 1.32079 24.6432C0.519253 35.5927 6.60185 45.1964 15.6514 49.5017C17.0088 50.1485 17.875 51.5269 17.875 53.0426V59.0465V63.5805C17.875 67.9577 21.0488 71.7992 25.3538 72.2826C30.441 72.851 34.7524 68.8397 34.7524 63.8092V53.0426C34.7524 51.5269 35.6251 50.1485 36.9825 49.5017C45.4826 45.4446 51.3713 36.7099 51.3713 26.577Z" stroke="white" stroke-width="2.5" stroke-miterlimit="10"/>
<path d="M34.7466 58.7003H17.8691" stroke="white" stroke-width="2.5" stroke-miterlimit="10"/>
<path d="M26.3101 28.2036C21.4039 28.2036 17.4092 32.2411 17.4092 37.1997V42.4392C20.0142 44.0072 23.0587 44.9153 26.3101 44.9153C29.5614 44.9153 32.606 44.0137 35.211 42.4392V37.1997C35.211 32.2411 31.2162 28.2036 26.3101 28.2036Z" fill="#907EFF"/>
<path d="M13.0205 37.1997C13.0205 29.7912 18.9803 23.7677 26.3104 23.7677C33.6406 23.7677 39.6003 29.7912 39.6003 37.1997V38.6827C42.173 35.6122 43.7243 31.6466 43.7243 27.3151C43.7243 17.5939 35.9288 9.71497 26.3104 9.71497C16.692 9.71497 8.89648 17.5939 8.89648 27.3151C8.89648 31.6531 10.4478 35.6187 13.0205 38.6827V37.1997Z" fill="#907EFF"/>
</svg>
