<svg width="39" height="39" viewBox="0 0 39 39" fill="none" xmlns="http://www.w3.org/2000/svg">
<path d="M38.75 19.375C38.75 8.67188 30.0781 0 19.375 0C8.67188 0 0 8.67188 0 19.375C0 27.6562 5.07812 34.6094 12.2656 37.4219C12.1094 35.9375 11.9531 33.5938 12.3438 31.875C12.7344 30.3906 14.6094 22.2656 14.6094 22.2656C14.6094 22.2656 14.0625 21.0938 14.0625 19.375C14.0625 16.7188 15.625 14.6875 17.5781 14.6875C19.2188 14.6875 20 15.9375 20 17.4219C20 19.0625 18.9062 21.5625 18.3594 23.9062C17.9688 25.7812 19.375 27.3438 21.25 27.3438C24.6875 27.3438 27.3438 23.75 27.3438 18.5156C27.3438 13.8281 23.9844 10.625 19.2969 10.625C13.75 10.625 10.5469 14.7656 10.5469 18.9844C10.5469 20.7031 11.1719 22.5 11.9531 23.4375C12.1094 23.5938 12.1094 23.8281 12.1094 23.9844C11.9531 24.6094 11.5625 25.9375 11.5625 26.1719C11.4844 26.5625 11.25 26.6406 10.8594 26.4844C8.4375 25.3125 6.95312 21.7969 6.95312 18.9062C6.95312 12.8125 11.4062 7.1875 19.7656 7.1875C26.4844 7.1875 31.7188 12.0312 31.7188 18.4375C31.7188 25.0781 27.5 30.4688 21.6406 30.4688C19.6875 30.4688 17.8125 29.4531 17.1875 28.2031C17.1875 28.2031 16.25 31.9531 16.0156 32.8125C15.5469 34.5312 14.375 36.6406 13.5938 37.8906C15.3906 38.5156 17.3438 38.75 19.375 38.75C30.0781 38.75 38.75 30.0781 38.75 19.375Z" fill="white"/>
</svg>
