<svg width="50" height="54" viewBox="0 0 50 54" fill="none" xmlns="http://www.w3.org/2000/svg">
<path d="M42.9145 37.1133L34.2314 45.7698C33.1189 46.8783 31.6202 47.497 30.0495 47.497H7.17264C3.90231 47.497 1.25 44.8418 1.25 41.5679V7.1791C1.25 3.90521 3.90231 1.25 7.17264 1.25H38.7326C42.0029 1.25 44.6552 3.90521 44.6552 7.1791V32.9114C44.6603 34.4891 44.032 35.9997 42.9145 37.1133Z" stroke="white" stroke-width="2.5" stroke-miterlimit="10"/>
<path d="M48.1779 42.6453L39.4948 51.3018C38.3823 52.4103 36.8836 53.029 35.3129 53.029H12.4412C9.17087 53.029 6.51855 50.3738 6.51855 47.0999V12.7111C6.51855 9.43719 9.17087 6.78198 12.4412 6.78198H44.0011C47.2714 6.78198 49.9237 9.43719 49.9237 12.7111V38.4434C49.9237 40.0211 49.2954 41.5317 48.1779 42.6453Z" fill="#907EFF"/>
<path d="M14.9756 20.7992C14.9756 20.1558 15.4971 19.6343 16.1405 19.6343H40.9924C41.6358 19.6343 42.1573 20.1558 42.1573 20.7992C42.1573 21.4426 41.6358 21.9641 40.9924 21.9641H16.1405C15.4971 21.9641 14.9756 21.4426 14.9756 20.7992Z" fill="white"/>
<path d="M14.9756 26.236C14.9756 25.5926 15.4971 25.071 16.1405 25.071H40.9924C41.6358 25.071 42.1573 25.5926 42.1573 26.236C42.1573 26.8794 41.6358 27.4009 40.9924 27.4009H16.1405C15.4971 27.4009 14.9756 26.8794 14.9756 26.236Z" fill="white"/>
<path d="M14.9756 31.6721C14.9756 31.0288 15.4971 30.5072 16.1405 30.5072H40.9924C41.6358 30.5072 42.1573 31.0288 42.1573 31.6721C42.1573 32.3155 41.6358 32.8371 40.9924 32.8371H16.1405C15.4971 32.8371 14.9756 32.3155 14.9756 31.6721Z" fill="white"/>
<path d="M14.9756 37.1084C14.9756 36.465 15.4971 35.9435 16.1405 35.9435H28.5665C29.2098 35.9435 29.7314 36.465 29.7314 37.1084C29.7314 37.7518 29.2098 38.2733 28.5665 38.2733H16.1405C15.4971 38.2733 14.9756 37.7518 14.9756 37.1084Z" fill="white"/>
</svg>
