<svg width="44" height="41" viewBox="0 0 44 41" fill="none" xmlns="http://www.w3.org/2000/svg">
<mask id="path-1-outside-1_1_3019" maskUnits="userSpaceOnUse" x="-0.421875" y="-0.75" width="44" height="42" fill="black">
<rect fill="white" x="-0.421875" y="-0.75" width="44" height="42"/>
<path d="M41.4219 30.9531C41.7344 30.3281 41.3438 29.7812 40.875 29.7031C35.4062 28.8438 32.9844 23.2188 32.8281 22.9844C32.5156 22.3594 32.5156 21.8906 32.6719 21.5C32.9844 20.7969 34.1562 20.4062 34.8594 20.1719C35.0938 20.0938 35.3281 20.0156 35.4844 19.9375C36.8125 19.3906 37.5156 18.7656 37.5156 17.9844C37.4375 17.4375 37.0469 16.8906 36.2656 16.5781C35.7969 16.4219 35.1719 16.4219 34.7031 16.5781C34 16.8906 33.4531 17.0469 32.9062 17.125C32.5938 17.0469 32.3594 16.9688 32.2812 16.8906C32.4375 14.0781 32.8281 10.0938 31.8125 7.82812C29.9375 3.60938 26.0312 1.5 21.8906 1.5C21.8125 1.5 21.1875 1.5 21.1094 1.5C19.4688 1.5 13.9219 1.96875 11.2656 7.90625C10.25 10.0938 10.6406 14.1562 10.7969 16.8906C10.6406 16.9688 10.4062 17.125 10.0156 17.125C9.46875 17.125 8.92188 16.9688 8.21875 16.5781C7.28125 16.1875 5.79688 16.8125 5.64062 17.8281C5.48438 18.375 5.79688 19.2344 7.59375 19.9375C8.29688 20.25 10.0156 20.5625 10.4062 21.5C10.5625 21.8906 10.5625 22.3594 10.25 22.9844C10.0938 23.2188 7.67188 28.8438 2.20312 29.7031C1.8125 29.7812 1.5 30.1719 1.5 30.5625H1.57812C1.65625 32.2031 5.25 32.8281 6.89062 33.1406C7.04688 33.2969 7.20312 34.2344 7.4375 35.0156C7.51562 35.3281 7.75 35.7188 8.375 35.7188C9 35.7188 9.9375 35.3281 11.4219 35.3281C13.4531 35.3281 14.1562 35.7969 15.7969 36.9688C16.9688 37.75 19 39.2344 21.5 39.0781C23.9219 39.1562 25.5625 38.1406 27.2812 36.9688C28.9219 35.7969 29.625 35.3281 31.6562 35.3281C33.2188 35.3281 34 35.6406 34.7031 35.6406C35.25 35.6406 35.5625 35.4062 35.6406 34.9375C35.875 34.2344 36.0312 33.2969 36.1875 33.0625C39.3125 32.5938 41.0312 31.8906 41.4219 30.9531Z"/>
</mask>
<path d="M41.4219 30.9531C41.7344 30.3281 41.3438 29.7812 40.875 29.7031C35.4062 28.8438 32.9844 23.2188 32.8281 22.9844C32.5156 22.3594 32.5156 21.8906 32.6719 21.5C32.9844 20.7969 34.1562 20.4062 34.8594 20.1719C35.0938 20.0938 35.3281 20.0156 35.4844 19.9375C36.8125 19.3906 37.5156 18.7656 37.5156 17.9844C37.4375 17.4375 37.0469 16.8906 36.2656 16.5781C35.7969 16.4219 35.1719 16.4219 34.7031 16.5781C34 16.8906 33.4531 17.0469 32.9062 17.125C32.5938 17.0469 32.3594 16.9688 32.2812 16.8906C32.4375 14.0781 32.8281 10.0938 31.8125 7.82812C29.9375 3.60938 26.0312 1.5 21.8906 1.5C21.8125 1.5 21.1875 1.5 21.1094 1.5C19.4688 1.5 13.9219 1.96875 11.2656 7.90625C10.25 10.0938 10.6406 14.1562 10.7969 16.8906C10.6406 16.9688 10.4062 17.125 10.0156 17.125C9.46875 17.125 8.92188 16.9688 8.21875 16.5781C7.28125 16.1875 5.79688 16.8125 5.64062 17.8281C5.48438 18.375 5.79688 19.2344 7.59375 19.9375C8.29688 20.25 10.0156 20.5625 10.4062 21.5C10.5625 21.8906 10.5625 22.3594 10.25 22.9844C10.0938 23.2188 7.67188 28.8438 2.20312 29.7031C1.8125 29.7812 1.5 30.1719 1.5 30.5625H1.57812C1.65625 32.2031 5.25 32.8281 6.89062 33.1406C7.04688 33.2969 7.20312 34.2344 7.4375 35.0156C7.51562 35.3281 7.75 35.7188 8.375 35.7188C9 35.7188 9.9375 35.3281 11.4219 35.3281C13.4531 35.3281 14.1562 35.7969 15.7969 36.9688C16.9688 37.75 19 39.2344 21.5 39.0781C23.9219 39.1562 25.5625 38.1406 27.2812 36.9688C28.9219 35.7969 29.625 35.3281 31.6562 35.3281C33.2188 35.3281 34 35.6406 34.7031 35.6406C35.25 35.6406 35.5625 35.4062 35.6406 34.9375C35.875 34.2344 36.0312 33.2969 36.1875 33.0625C39.3125 32.5938 41.0312 31.8906 41.4219 30.9531Z" fill="white"/>
<path d="M41.4219 30.9531L40.0802 30.2823L40.0571 30.3285L40.0373 30.3762L41.4219 30.9531ZM40.875 29.7031L41.1216 28.2235L41.1079 28.2213L40.875 29.7031ZM32.8281 22.9844L31.4865 23.6552L31.5282 23.7387L31.58 23.8164L32.8281 22.9844ZM32.6719 21.5L31.3012 20.8908L31.2897 20.9166L31.2792 20.9429L32.6719 21.5ZM35.4844 19.9375L34.9132 18.5505L34.8626 18.5714L34.8136 18.5959L35.4844 19.9375ZM37.5156 17.9844H39.0156V17.8778L39.0005 17.7722L37.5156 17.9844ZM36.2656 16.5781L36.8227 15.1854L36.7818 15.169L36.74 15.1551L36.2656 16.5781ZM34.7031 16.5781L34.2288 15.1551L34.1601 15.178L34.0939 15.2074L34.7031 16.5781ZM32.9062 17.125L32.5424 18.5802L32.8275 18.6515L33.1184 18.6099L32.9062 17.125ZM32.2812 16.8906L30.7836 16.8074L30.7464 17.4771L31.2206 17.9513L32.2812 16.8906ZM31.8125 7.82812L30.4418 8.43734L30.4437 8.44171L31.8125 7.82812ZM11.2656 7.90625L12.6261 8.53792L12.6306 8.52839L12.6349 8.5188L11.2656 7.90625ZM10.7969 16.8906L11.4677 18.2323L12.3508 17.7907L12.2944 16.805L10.7969 16.8906ZM8.21875 16.5781L8.94721 15.2669L8.87351 15.2259L8.79567 15.1935L8.21875 16.5781ZM5.64062 17.8281L7.08291 18.2402L7.10883 18.1495L7.12318 18.0562L5.64062 17.8281ZM7.59375 19.9375L8.20296 18.5668L8.17195 18.553L8.14035 18.5406L7.59375 19.9375ZM10.4062 21.5L11.799 20.9429L11.795 20.933L11.7909 20.9231L10.4062 21.5ZM10.25 22.9844L11.4981 23.8164L11.5499 23.7387L11.5916 23.6552L10.25 22.9844ZM2.20312 29.7031L1.97027 28.2213L1.9395 28.2261L1.90895 28.2323L2.20312 29.7031ZM1.5 30.5625H0V32.0625H1.5V30.5625ZM1.57812 30.5625L3.07643 30.4912L3.0084 29.0625H1.57812V30.5625ZM6.89062 33.1406L7.95129 32.08L7.62482 31.7535L7.17129 31.6671L6.89062 33.1406ZM7.4375 35.0156L8.89271 34.6518L8.88426 34.618L8.87424 34.5846L7.4375 35.0156ZM15.7969 36.9688L14.925 38.1894L14.9447 38.2034L14.9648 38.2168L15.7969 36.9688ZM21.5 39.0781L21.5484 37.5789L21.4773 37.5766L21.4064 37.581L21.5 39.0781ZM27.2812 36.9688L28.1263 38.2081L28.1398 38.1989L28.1531 38.1894L27.2812 36.9688ZM35.6406 34.9375L34.2176 34.4632L34.1804 34.5748L34.161 34.6909L35.6406 34.9375ZM36.1875 33.0625L35.965 31.5791L35.308 31.6777L34.9394 32.2304L36.1875 33.0625ZM42.7635 31.6239C43.5422 30.0666 42.5529 28.4621 41.1216 28.2235L40.6284 31.1827C40.3811 31.1415 40.2039 30.9939 40.1115 30.8169C39.9972 30.5978 40.03 30.3828 40.0802 30.2823L42.7635 31.6239ZM41.1079 28.2213C38.8566 27.8675 37.1796 26.5261 36.0034 25.1392C34.7288 23.6363 34.3865 22.6178 34.0762 22.1523L31.58 23.8164C31.426 23.5853 32.3728 25.4965 33.7154 27.0796C35.1563 28.7786 37.4247 30.6793 40.6421 31.1849L41.1079 28.2213ZM34.1698 22.3136C34.0799 22.1338 34.0705 22.0474 34.0694 22.0347C34.0689 22.0283 34.0698 22.032 34.0682 22.0419C34.0667 22.0516 34.0644 22.0575 34.0646 22.0571L31.2792 20.9429C30.934 21.8059 31.0215 22.7252 31.4865 23.6552L34.1698 22.3136ZM34.0426 22.1092C34.0015 22.2017 33.9631 22.2182 34.0144 22.1749C34.064 22.133 34.1555 22.0707 34.3024 21.9955C34.6053 21.8405 34.9672 21.7171 35.3337 21.5949L34.385 18.7488C34.0484 18.8611 33.4728 19.0501 32.9359 19.3248C32.4538 19.5715 31.6775 20.044 31.3012 20.8908L34.0426 22.1092ZM35.3337 21.5949C35.5261 21.5308 35.8811 21.4162 36.1552 21.2791L34.8136 18.5959C34.8171 18.5941 34.8089 18.5983 34.7844 18.6083C34.7608 18.618 34.7294 18.6301 34.6886 18.645C34.6037 18.6759 34.5065 18.7083 34.385 18.7488L35.3337 21.5949ZM36.0555 21.3245C36.7956 21.0198 37.4943 20.6426 38.0271 20.1402C38.5893 19.6101 39.0156 18.8867 39.0156 17.9844H36.0156C36.0156 17.8633 36.0904 17.843 35.969 17.9574C35.8182 18.0996 35.5012 18.3084 34.9132 18.5505L36.0555 21.3245ZM39.0005 17.7722C38.8362 16.6219 38.0303 15.6685 36.8227 15.1854L35.7085 17.9708C35.8972 18.0463 35.9775 18.1246 36.0057 18.1581C36.0335 18.1912 36.0319 18.2049 36.0307 18.1965L39.0005 17.7722ZM36.74 15.1551C35.9633 14.8962 35.0054 14.8962 34.2288 15.1551L35.1775 18.0012C35.3383 17.9475 35.6304 17.9475 35.7913 18.0012L36.74 15.1551ZM34.0939 15.2074C33.4954 15.4734 33.0822 15.5846 32.6941 15.6401L33.1184 18.6099C33.8241 18.5091 34.5046 18.3078 35.3123 17.9488L34.0939 15.2074ZM33.2701 15.6698C33.2055 15.6536 33.1513 15.6391 33.1067 15.6261C33.0613 15.6129 33.033 15.6034 33.0185 15.5981C33.0007 15.5916 33.018 15.5967 33.0559 15.6163C33.076 15.6267 33.1115 15.646 33.1558 15.6759C33.1984 15.7046 33.2665 15.7546 33.3419 15.83L31.2206 17.9513C31.5189 18.2496 31.8897 18.3798 31.9932 18.4175C32.1719 18.4825 32.3662 18.5361 32.5424 18.5802L33.2701 15.6698ZM33.7789 16.9738C33.8542 15.6194 33.9964 13.8375 33.9863 12.1453C33.9763 10.4827 33.8251 8.65085 33.1813 7.21454L30.4437 8.44171C30.8155 9.27103 30.9768 10.5642 30.9864 12.1633C30.9958 13.7328 30.8646 15.3493 30.7836 16.8074L33.7789 16.9738ZM33.1832 7.21892C31.0405 2.39789 26.5548 0 21.8906 0V3C25.5077 3 28.8345 4.82086 30.4418 8.43733L33.1832 7.21892ZM21.8906 0C21.8905 0 21.8903 0 21.8902 0C21.89 0 21.8898 0 21.8897 0C21.8895 0 21.8894 0 21.8892 0C21.889 0 21.8889 0 21.8887 0C21.8885 0 21.8884 0 21.8882 0C21.888 0 21.8878 0 21.8877 0C21.8875 0 21.8873 0 21.8871 0C21.8869 0 21.8868 0 21.8866 0C21.8864 0 21.8862 0 21.886 0C21.8858 0 21.8856 0 21.8854 0C21.8852 0 21.885 0 21.8848 0C21.8846 0 21.8844 0 21.8842 0C21.884 0 21.8838 0 21.8836 0C21.8834 0 21.8832 0 21.883 0C21.8828 0 21.8826 0 21.8824 0C21.8822 0 21.8819 0 21.8817 0C21.8815 0 21.8813 0 21.8811 0C21.8809 0 21.8806 0 21.8804 0C21.8802 0 21.88 0 21.8797 0C21.8795 0 21.8793 0 21.879 0C21.8788 0 21.8786 0 21.8783 0C21.8781 0 21.8779 0 21.8776 0C21.8774 0 21.8771 0 21.8769 0C21.8766 0 21.8764 0 21.8761 0C21.8759 0 21.8756 0 21.8754 0C21.8751 0 21.8749 0 21.8746 0C21.8744 0 21.8741 0 21.8739 0C21.8736 0 21.8733 0 21.8731 0C21.8728 0 21.8726 0 21.8723 0C21.872 0 21.8717 0 21.8715 0C21.8712 0 21.8709 0 21.8707 0C21.8704 0 21.8701 0 21.8698 0C21.8696 0 21.8693 0 21.869 0C21.8687 0 21.8684 0 21.8681 0C21.8679 0 21.8676 0 21.8673 0C21.867 0 21.8667 0 21.8664 0C21.8661 0 21.8658 0 21.8655 0C21.8652 0 21.8649 0 21.8646 0C21.8643 0 21.864 0 21.8637 0C21.8634 0 21.8631 0 21.8628 0C21.8625 0 21.8622 0 21.8619 0C21.8616 0 21.8613 0 21.861 0C21.8606 0 21.8603 0 21.86 0C21.8597 0 21.8594 0 21.8591 0C21.8587 0 21.8584 0 21.8581 0C21.8578 0 21.8574 0 21.8571 0C21.8568 0 21.8565 0 21.8561 0C21.8558 0 21.8555 0 21.8551 0C21.8548 0 21.8545 0 21.8541 0C21.8538 0 21.8535 0 21.8531 0C21.8528 0 21.8524 0 21.8521 0C21.8517 0 21.8514 0 21.851 0C21.8507 0 21.8503 0 21.85 0C21.8496 0 21.8493 0 21.8489 0C21.8486 0 21.8482 0 21.8479 0C21.8475 0 21.8472 0 21.8468 0C21.8464 0 21.8461 0 21.8457 0C21.8453 0 21.845 0 21.8446 0C21.8442 0 21.8439 0 21.8435 0C21.8431 0 21.8428 0 21.8424 0C21.842 0 21.8416 0 21.8413 0C21.8409 0 21.8405 0 21.8401 0C21.8397 0 21.8394 0 21.839 0C21.8386 0 21.8382 0 21.8378 0C21.8374 0 21.8371 0 21.8367 0C21.8363 0 21.8359 0 21.8355 0C21.8351 0 21.8347 0 21.8343 0C21.8339 0 21.8335 0 21.8331 0C21.8327 0 21.8323 0 21.8319 0C21.8315 0 21.8311 0 21.8307 0C21.8303 0 21.8299 0 21.8295 0C21.8291 0 21.8287 0 21.8283 0C21.8279 0 21.8274 0 21.827 0C21.8266 0 21.8262 0 21.8258 0C21.8254 0 21.8249 0 21.8245 0C21.8241 0 21.8237 0 21.8233 0C21.8228 0 21.8224 0 21.822 0C21.8216 0 21.8211 0 21.8207 0C21.8203 0 21.8199 0 21.8194 0C21.819 0 21.8186 0 21.8181 0C21.8177 0 21.8173 0 21.8168 0C21.8164 0 21.8159 0 21.8155 0C21.8151 0 21.8146 0 21.8142 0C21.8137 0 21.8133 0 21.8128 0C21.8124 0 21.812 0 21.8115 0C21.8111 0 21.8106 0 21.8102 0C21.8097 0 21.8092 0 21.8088 0C21.8083 0 21.8079 0 21.8074 0C21.807 0 21.8065 0 21.8061 0C21.8056 0 21.8051 0 21.8047 0C21.8042 0 21.8037 0 21.8033 0C21.8028 0 21.8024 0 21.8019 0C21.8014 0 21.8009 0 21.8005 0C21.8 0 21.7995 0 21.7991 0C21.7986 0 21.7981 0 21.7976 0C21.7972 0 21.7967 0 21.7962 0C21.7957 0 21.7953 0 21.7948 0C21.7943 0 21.7938 0 21.7933 0C21.7928 0 21.7924 0 21.7919 0C21.7914 0 21.7909 0 21.7904 0C21.7899 0 21.7894 0 21.7889 0C21.7885 0 21.788 0 21.7875 0C21.787 0 21.7865 0 21.786 0C21.7855 0 21.785 0 21.7845 0C21.784 0 21.7835 0 21.783 0C21.7825 0 21.782 0 21.7815 0C21.781 0 21.7805 0 21.78 0C21.7795 0 21.779 0 21.7785 0C21.7779 0 21.7774 0 21.7769 0C21.7764 0 21.7759 0 21.7754 0C21.7749 0 21.7744 0 21.7738 0C21.7733 0 21.7728 0 21.7723 0C21.7718 0 21.7713 0 21.7707 0C21.7702 0 21.7697 0 21.7692 0C21.7687 0 21.7681 0 21.7676 0C21.7671 0 21.7666 0 21.766 0C21.7655 0 21.765 0 21.7644 0C21.7639 0 21.7634 0 21.7629 0C21.7623 0 21.7618 0 21.7613 0C21.7607 0 21.7602 0 21.7597 0C21.7591 0 21.7586 0 21.758 0C21.7575 0 21.757 0 21.7564 0C21.7559 0 21.7553 0 21.7548 0C21.7543 0 21.7537 0 21.7532 0C21.7526 0 21.7521 0 21.7515 0C21.751 0 21.7504 0 21.7499 0C21.7493 0 21.7488 0 21.7482 0C21.7477 0 21.7471 0 21.7466 0C21.746 0 21.7455 0 21.7449 0C21.7444 0 21.7438 0 21.7432 0C21.7427 0 21.7421 0 21.7416 0C21.741 0 21.7405 0 21.7399 0C21.7393 0 21.7388 0 21.7382 0C21.7376 0 21.7371 0 21.7365 0C21.7359 0 21.7354 0 21.7348 0C21.7342 0 21.7337 0 21.7331 0C21.7325 0 21.732 0 21.7314 0C21.7308 0 21.7303 0 21.7297 0C21.7291 0 21.7285 0 21.728 0C21.7274 0 21.7268 0 21.7262 0C21.7257 0 21.7251 0 21.7245 0C21.7239 0 21.7233 0 21.7228 0C21.7222 0 21.7216 0 21.721 0C21.7204 0 21.7198 0 21.7193 0C21.7187 0 21.7181 0 21.7175 0C21.7169 0 21.7163 0 21.7157 0C21.7152 0 21.7146 0 21.714 0C21.7134 0 21.7128 0 21.7122 0C21.7116 0 21.711 0 21.7104 0C21.7098 0 21.7092 0 21.7086 0C21.7081 0 21.7075 0 21.7069 0C21.7063 0 21.7057 0 21.7051 0C21.7045 0 21.7039 0 21.7033 0C21.7027 0 21.7021 0 21.7015 0C21.7009 0 21.7003 0 21.6997 0C21.6991 0 21.6985 0 21.6978 0C21.6972 0 21.6966 0 21.696 0C21.6954 0 21.6948 0 21.6942 0C21.6936 0 21.693 0 21.6924 0C21.6918 0 21.6912 0 21.6905 0C21.6899 0 21.6893 0 21.6887 0C21.6881 0 21.6875 0 21.6869 0C21.6863 0 21.6856 0 21.685 0C21.6844 0 21.6838 0 21.6832 0C21.6826 0 21.6819 0 21.6813 0C21.6807 0 21.6801 0 21.6795 0C21.6788 0 21.6782 0 21.6776 0C21.677 0 21.6763 0 21.6757 0C21.6751 0 21.6745 0 21.6738 0C21.6732 0 21.6726 0 21.672 0C21.6713 0 21.6707 0 21.6701 0C21.6695 0 21.6688 0 21.6682 0C21.6676 0 21.6669 0 21.6663 0C21.6657 0 21.6651 0 21.6644 0C21.6638 0 21.6632 0 21.6625 0C21.6619 0 21.6613 0 21.6606 0C21.66 0 21.6594 0 21.6587 0C21.6581 0 21.6574 0 21.6568 0C21.6562 0 21.6555 0 21.6549 0C21.6543 0 21.6536 0 21.653 0C21.6523 0 21.6517 0 21.6511 0C21.6504 0 21.6498 0 21.6491 0C21.6485 0 21.6478 0 21.6472 0C21.6466 0 21.6459 0 21.6453 0C21.6446 0 21.644 0 21.6433 0C21.6427 0 21.642 0 21.6414 0C21.6408 0 21.6401 0 21.6395 0C21.6388 0 21.6382 0 21.6375 0C21.6369 0 21.6362 0 21.6356 0C21.6349 0 21.6343 0 21.6336 0C21.633 0 21.6323 0 21.6317 0C21.631 0 21.6304 0 21.6297 0C21.629 0 21.6284 0 21.6277 0C21.6271 0 21.6264 0 21.6258 0C21.6251 0 21.6245 0 21.6238 0C21.6231 0 21.6225 0 21.6218 0C21.6212 0 21.6205 0 21.6199 0C21.6192 0 21.6185 0 21.6179 0C21.6172 0 21.6166 0 21.6159 0C21.6152 0 21.6146 0 21.6139 0C21.6133 0 21.6126 0 21.6119 0C21.6113 0 21.6106 0 21.61 0C21.6093 0 21.6086 0 21.608 0C21.6073 0 21.6066 0 21.606 0C21.6053 0 21.6046 0 21.604 0C21.6033 0 21.6026 0 21.602 0C21.6013 0 21.6006 0 21.6 0C21.5993 0 21.5986 0 21.598 0C21.5973 0 21.5966 0 21.596 0C21.5953 0 21.5946 0 21.594 0C21.5933 0 21.5926 0 21.592 0C21.5913 0 21.5906 0 21.5899 0C21.5893 0 21.5886 0 21.5879 0C21.5873 0 21.5866 0 21.5859 0C21.5852 0 21.5846 0 21.5839 0C21.5832 0 21.5826 0 21.5819 0C21.5812 0 21.5805 0 21.5799 0C21.5792 0 21.5785 0 21.5778 0C21.5772 0 21.5765 0 21.5758 0C21.5751 0 21.5745 0 21.5738 0C21.5731 0 21.5724 0 21.5717 0C21.5711 0 21.5704 0 21.5697 0C21.569 0 21.5684 0 21.5677 0C21.567 0 21.5663 0 21.5657 0C21.565 0 21.5643 0 21.5636 0C21.5629 0 21.5623 0 21.5616 0C21.5609 0 21.5602 0 21.5595 0C21.5589 0 21.5582 0 21.5575 0C21.5568 0 21.5561 0 21.5555 0C21.5548 0 21.5541 0 21.5534 0C21.5527 0 21.5521 0 21.5514 0C21.5507 0 21.55 0 21.5493 0C21.5486 0 21.548 0 21.5473 0C21.5466 0 21.5459 0 21.5452 0C21.5445 0 21.5439 0 21.5432 0C21.5425 0 21.5418 0 21.5411 0C21.5405 0 21.5398 0 21.5391 0C21.5384 0 21.5377 0 21.537 0C21.5363 0 21.5357 0 21.535 0C21.5343 0 21.5336 0 21.5329 0C21.5322 0 21.5316 0 21.5309 0C21.5302 0 21.5295 0 21.5288 0C21.5281 0 21.5274 0 21.5268 0C21.5261 0 21.5254 0 21.5247 0C21.524 0 21.5233 0 21.5226 0C21.522 0 21.5213 0 21.5206 0C21.5199 0 21.5192 0 21.5185 0C21.5178 0 21.5172 0 21.5165 0C21.5158 0 21.5151 0 21.5144 0C21.5137 0 21.513 0 21.5124 0C21.5117 0 21.511 0 21.5103 0C21.5096 0 21.5089 0 21.5082 0C21.5076 0 21.5069 0 21.5062 0C21.5055 0 21.5048 0 21.5041 0C21.5034 0 21.5027 0 21.5021 0C21.5014 0 21.5007 0 21.5 0C21.4993 0 21.4986 0 21.4979 0C21.4973 0 21.4966 0 21.4959 0C21.4952 0 21.4945 0 21.4938 0C21.4931 0 21.4924 0 21.4918 0C21.4911 0 21.4904 0 21.4897 0C21.489 0 21.4883 0 21.4876 0C21.487 0 21.4863 0 21.4856 0C21.4849 0 21.4842 0 21.4835 0C21.4828 0 21.4822 0 21.4815 0C21.4808 0 21.4801 0 21.4794 0C21.4787 0 21.478 0 21.4774 0C21.4767 0 21.476 0 21.4753 0C21.4746 0 21.4739 0 21.4732 0C21.4726 0 21.4719 0 21.4712 0C21.4705 0 21.4698 0 21.4691 0C21.4684 0 21.4678 0 21.4671 0C21.4664 0 21.4657 0 21.465 0C21.4643 0 21.4637 0 21.463 0C21.4623 0 21.4616 0 21.4609 0C21.4602 0 21.4595 0 21.4589 0C21.4582 0 21.4575 0 21.4568 0C21.4561 0 21.4555 0 21.4548 0C21.4541 0 21.4534 0 21.4527 0C21.452 0 21.4514 0 21.4507 0C21.45 0 21.4493 0 21.4486 0C21.4479 0 21.4473 0 21.4466 0C21.4459 0 21.4452 0 21.4445 0C21.4439 0 21.4432 0 21.4425 0C21.4418 0 21.4411 0 21.4405 0C21.4398 0 21.4391 0 21.4384 0C21.4377 0 21.4371 0 21.4364 0C21.4357 0 21.435 0 21.4343 0C21.4337 0 21.433 0 21.4323 0C21.4316 0 21.431 0 21.4303 0C21.4296 0 21.4289 0 21.4283 0C21.4276 0 21.4269 0 21.4262 0C21.4255 0 21.4249 0 21.4242 0C21.4235 0 21.4228 0 21.4222 0C21.4215 0 21.4208 0 21.4201 0C21.4195 0 21.4188 0 21.4181 0C21.4174 0 21.4168 0 21.4161 0C21.4154 0 21.4148 0 21.4141 0C21.4134 0 21.4127 0 21.4121 0C21.4114 0 21.4107 0 21.4101 0C21.4094 0 21.4087 0 21.408 0C21.4074 0 21.4067 0 21.406 0C21.4054 0 21.4047 0 21.404 0C21.4034 0 21.4027 0 21.402 0C21.4014 0 21.4007 0 21.4 0C21.3994 0 21.3987 0 21.398 0C21.3974 0 21.3967 0 21.396 0C21.3954 0 21.3947 0 21.394 0C21.3934 0 21.3927 0 21.392 0C21.3914 0 21.3907 0 21.39 0C21.3894 0 21.3887 0 21.3881 0C21.3874 0 21.3867 0 21.3861 0C21.3854 0 21.3848 0 21.3841 0C21.3834 0 21.3828 0 21.3821 0C21.3815 0 21.3808 0 21.3801 0C21.3795 0 21.3788 0 21.3782 0C21.3775 0 21.3769 0 21.3762 0C21.3755 0 21.3749 0 21.3742 0C21.3736 0 21.3729 0 21.3723 0C21.3716 0 21.371 0 21.3703 0C21.3696 0 21.369 0 21.3683 0C21.3677 0 21.367 0 21.3664 0C21.3657 0 21.3651 0 21.3644 0C21.3638 0 21.3631 0 21.3625 0C21.3618 0 21.3612 0 21.3605 0C21.3599 0 21.3592 0 21.3586 0C21.358 0 21.3573 0 21.3567 0C21.356 0 21.3554 0 21.3547 0C21.3541 0 21.3534 0 21.3528 0C21.3522 0 21.3515 0 21.3509 0C21.3502 0 21.3496 0 21.3489 0C21.3483 0 21.3477 0 21.347 0C21.3464 0 21.3457 0 21.3451 0C21.3445 0 21.3438 0 21.3432 0C21.3426 0 21.3419 0 21.3413 0C21.3406 0 21.34 0 21.3394 0C21.3387 0 21.3381 0 21.3375 0C21.3368 0 21.3362 0 21.3356 0C21.3349 0 21.3343 0 21.3337 0C21.3331 0 21.3324 0 21.3318 0C21.3312 0 21.3305 0 21.3299 0C21.3293 0 21.3287 0 21.328 0C21.3274 0 21.3268 0 21.3262 0C21.3255 0 21.3249 0 21.3243 0C21.3237 0 21.323 0 21.3224 0C21.3218 0 21.3212 0 21.3205 0C21.3199 0 21.3193 0 21.3187 0C21.3181 0 21.3174 0 21.3168 0C21.3162 0 21.3156 0 21.315 0C21.3144 0 21.3137 0 21.3131 0C21.3125 0 21.3119 0 21.3113 0C21.3107 0 21.3101 0 21.3095 0C21.3088 0 21.3082 0 21.3076 0C21.307 0 21.3064 0 21.3058 0C21.3052 0 21.3046 0 21.304 0C21.3034 0 21.3028 0 21.3022 0C21.3015 0 21.3009 0 21.3003 0C21.2997 0 21.2991 0 21.2985 0C21.2979 0 21.2973 0 21.2967 0C21.2961 0 21.2955 0 21.2949 0C21.2943 0 21.2937 0 21.2931 0C21.2925 0 21.2919 0 21.2914 0C21.2908 0 21.2902 0 21.2896 0C21.289 0 21.2884 0 21.2878 0C21.2872 0 21.2866 0 21.286 0C21.2854 0 21.2848 0 21.2843 0C21.2837 0 21.2831 0 21.2825 0C21.2819 0 21.2813 0 21.2807 0C21.2802 0 21.2796 0 21.279 0C21.2784 0 21.2778 0 21.2772 0C21.2767 0 21.2761 0 21.2755 0C21.2749 0 21.2743 0 21.2738 0C21.2732 0 21.2726 0 21.272 0C21.2715 0 21.2709 0 21.2703 0C21.2697 0 21.2692 0 21.2686 0C21.268 0 21.2675 0 21.2669 0C21.2663 0 21.2658 0 21.2652 0C21.2646 0 21.2641 0 21.2635 0C21.2629 0 21.2624 0 21.2618 0C21.2612 0 21.2607 0 21.2601 0C21.2595 0 21.259 0 21.2584 0C21.2579 0 21.2573 0 21.2568 0C21.2562 0 21.2556 0 21.2551 0C21.2545 0 21.254 0 21.2534 0C21.2529 0 21.2523 0 21.2518 0C21.2512 0 21.2507 0 21.2501 0C21.2496 0 21.249 0 21.2485 0C21.2479 0 21.2474 0 21.2468 0C21.2463 0 21.2457 0 21.2452 0C21.2447 0 21.2441 0 21.2436 0C21.243 0 21.2425 0 21.242 0C21.2414 0 21.2409 0 21.2403 0C21.2398 0 21.2393 0 21.2387 0C21.2382 0 21.2377 0 21.2371 0C21.2366 0 21.2361 0 21.2356 0C21.235 0 21.2345 0 21.234 0C21.2334 0 21.2329 0 21.2324 0C21.2319 0 21.2313 0 21.2308 0C21.2303 0 21.2298 0 21.2293 0C21.2287 0 21.2282 0 21.2277 0C21.2272 0 21.2267 0 21.2262 0C21.2256 0 21.2251 0 21.2246 0C21.2241 0 21.2236 0 21.2231 0C21.2226 0 21.2221 0 21.2215 0C21.221 0 21.2205 0 21.22 0C21.2195 0 21.219 0 21.2185 0C21.218 0 21.2175 0 21.217 0C21.2165 0 21.216 0 21.2155 0C21.215 0 21.2145 0 21.214 0C21.2135 0 21.213 0 21.2125 0C21.212 0 21.2115 0 21.2111 0C21.2106 0 21.2101 0 21.2096 0C21.2091 0 21.2086 0 21.2081 0C21.2076 0 21.2072 0 21.2067 0C21.2062 0 21.2057 0 21.2052 0C21.2047 0 21.2043 0 21.2038 0C21.2033 0 21.2028 0 21.2024 0C21.2019 0 21.2014 0 21.2009 0C21.2005 0 21.2 0 21.1995 0C21.1991 0 21.1986 0 21.1981 0C21.1976 0 21.1972 0 21.1967 0C21.1963 0 21.1958 0 21.1953 0C21.1949 0 21.1944 0 21.1939 0C21.1935 0 21.193 0 21.1926 0C21.1921 0 21.1917 0 21.1912 0C21.1908 0 21.1903 0 21.1898 0C21.1894 0 21.1889 0 21.1885 0C21.188 0 21.1876 0 21.1872 0C21.1867 0 21.1863 0 21.1858 0C21.1854 0 21.1849 0 21.1845 0C21.1841 0 21.1836 0 21.1832 0C21.1827 0 21.1823 0 21.1819 0C21.1814 0 21.181 0 21.1806 0C21.1801 0 21.1797 0 21.1793 0C21.1789 0 21.1784 0 21.178 0C21.1776 0 21.1772 0 21.1767 0C21.1763 0 21.1759 0 21.1755 0C21.1751 0 21.1746 0 21.1742 0C21.1738 0 21.1734 0 21.173 0C21.1726 0 21.1721 0 21.1717 0C21.1713 0 21.1709 0 21.1705 0C21.1701 0 21.1697 0 21.1693 0C21.1689 0 21.1685 0 21.1681 0C21.1677 0 21.1673 0 21.1669 0C21.1665 0 21.1661 0 21.1657 0C21.1653 0 21.1649 0 21.1645 0C21.1641 0 21.1637 0 21.1633 0C21.1629 0 21.1626 0 21.1622 0C21.1618 0 21.1614 0 21.161 0C21.1606 0 21.1603 0 21.1599 0C21.1595 0 21.1591 0 21.1587 0C21.1584 0 21.158 0 21.1576 0C21.1572 0 21.1569 0 21.1565 0C21.1561 0 21.1558 0 21.1554 0C21.155 0 21.1547 0 21.1543 0C21.1539 0 21.1536 0 21.1532 0C21.1528 0 21.1525 0 21.1521 0C21.1518 0 21.1514 0 21.1511 0C21.1507 0 21.1504 0 21.15 0C21.1497 0 21.1493 0 21.149 0C21.1486 0 21.1483 0 21.1479 0C21.1476 0 21.1472 0 21.1469 0C21.1465 0 21.1462 0 21.1459 0C21.1455 0 21.1452 0 21.1449 0C21.1445 0 21.1442 0 21.1439 0C21.1435 0 21.1432 0 21.1429 0C21.1426 0 21.1422 0 21.1419 0C21.1416 0 21.1413 0 21.1409 0C21.1406 0 21.1403 0 21.14 0C21.1397 0 21.1394 0 21.139 0C21.1387 0 21.1384 0 21.1381 0C21.1378 0 21.1375 0 21.1372 0C21.1369 0 21.1366 0 21.1363 0C21.136 0 21.1357 0 21.1354 0C21.1351 0 21.1348 0 21.1345 0C21.1342 0 21.1339 0 21.1336 0C21.1333 0 21.133 0 21.1327 0C21.1324 0 21.1321 0 21.1319 0C21.1316 0 21.1313 0 21.131 0C21.1307 0 21.1304 0 21.1302 0C21.1299 0 21.1296 0 21.1293 0C21.1291 0 21.1288 0 21.1285 0C21.1283 0 21.128 0 21.1277 0C21.1274 0 21.1272 0 21.1269 0C21.1267 0 21.1264 0 21.1261 0C21.1259 0 21.1256 0 21.1254 0C21.1251 0 21.1249 0 21.1246 0C21.1244 0 21.1241 0 21.1239 0C21.1236 0 21.1234 0 21.1231 0C21.1229 0 21.1226 0 21.1224 0C21.1221 0 21.1219 0 21.1217 0C21.1214 0 21.1212 0 21.121 0C21.1207 0 21.1205 0 21.1203 0C21.12 0 21.1198 0 21.1196 0C21.1194 0 21.1191 0 21.1189 0C21.1187 0 21.1185 0 21.1183 0C21.1181 0 21.1178 0 21.1176 0C21.1174 0 21.1172 0 21.117 0C21.1168 0 21.1166 0 21.1164 0C21.1162 0 21.116 0 21.1158 0C21.1156 0 21.1154 0 21.1152 0C21.115 0 21.1148 0 21.1146 0C21.1144 0 21.1142 0 21.114 0C21.1138 0 21.1136 0 21.1134 0C21.1132 0 21.1131 0 21.1129 0C21.1127 0 21.1125 0 21.1123 0C21.1122 0 21.112 0 21.1118 0C21.1116 0 21.1115 0 21.1113 0C21.1111 0 21.111 0 21.1108 0C21.1106 0 21.1105 0 21.1103 0C21.1102 0 21.11 0 21.1098 0C21.1097 0 21.1095 0 21.1094 0V3C21.1095 3 21.1097 3 21.1098 3C21.11 3 21.1102 3 21.1103 3C21.1105 3 21.1106 3 21.1108 3C21.111 3 21.1111 3 21.1113 3C21.1115 3 21.1116 3 21.1118 3C21.112 3 21.1122 3 21.1123 3C21.1125 3 21.1127 3 21.1129 3C21.1131 3 21.1132 3 21.1134 3C21.1136 3 21.1138 3 21.114 3C21.1142 3 21.1144 3 21.1146 3C21.1148 3 21.115 3 21.1152 3C21.1154 3 21.1156 3 21.1158 3C21.116 3 21.1162 3 21.1164 3C21.1166 3 21.1168 3 21.117 3C21.1172 3 21.1174 3 21.1176 3C21.1178 3 21.1181 3 21.1183 3C21.1185 3 21.1187 3 21.1189 3C21.1191 3 21.1194 3 21.1196 3C21.1198 3 21.12 3 21.1203 3C21.1205 3 21.1207 3 21.121 3C21.1212 3 21.1214 3 21.1217 3C21.1219 3 21.1221 3 21.1224 3C21.1226 3 21.1229 3 21.1231 3C21.1234 3 21.1236 3 21.1239 3C21.1241 3 21.1244 3 21.1246 3C21.1249 3 21.1251 3 21.1254 3C21.1256 3 21.1259 3 21.1261 3C21.1264 3 21.1267 3 21.1269 3C21.1272 3 21.1274 3 21.1277 3C21.128 3 21.1283 3 21.1285 3C21.1288 3 21.1291 3 21.1293 3C21.1296 3 21.1299 3 21.1302 3C21.1304 3 21.1307 3 21.131 3C21.1313 3 21.1316 3 21.1319 3C21.1321 3 21.1324 3 21.1327 3C21.133 3 21.1333 3 21.1336 3C21.1339 3 21.1342 3 21.1345 3C21.1348 3 21.1351 3 21.1354 3C21.1357 3 21.136 3 21.1363 3C21.1366 3 21.1369 3 21.1372 3C21.1375 3 21.1378 3 21.1381 3C21.1384 3 21.1387 3 21.139 3C21.1394 3 21.1397 3 21.14 3C21.1403 3 21.1406 3 21.1409 3C21.1413 3 21.1416 3 21.1419 3C21.1422 3 21.1426 3 21.1429 3C21.1432 3 21.1435 3 21.1439 3C21.1442 3 21.1445 3 21.1449 3C21.1452 3 21.1455 3 21.1459 3C21.1462 3 21.1465 3 21.1469 3C21.1472 3 21.1476 3 21.1479 3C21.1483 3 21.1486 3 21.149 3C21.1493 3 21.1497 3 21.15 3C21.1504 3 21.1507 3 21.1511 3C21.1514 3 21.1518 3 21.1521 3C21.1525 3 21.1528 3 21.1532 3C21.1536 3 21.1539 3 21.1543 3C21.1547 3 21.155 3 21.1554 3C21.1558 3 21.1561 3 21.1565 3C21.1569 3 21.1572 3 21.1576 3C21.158 3 21.1584 3 21.1587 3C21.1591 3 21.1595 3 21.1599 3C21.1603 3 21.1606 3 21.161 3C21.1614 3 21.1618 3 21.1622 3C21.1626 3 21.1629 3 21.1633 3C21.1637 3 21.1641 3 21.1645 3C21.1649 3 21.1653 3 21.1657 3C21.1661 3 21.1665 3 21.1669 3C21.1673 3 21.1677 3 21.1681 3C21.1685 3 21.1689 3 21.1693 3C21.1697 3 21.1701 3 21.1705 3C21.1709 3 21.1713 3 21.1717 3C21.1721 3 21.1726 3 21.173 3C21.1734 3 21.1738 3 21.1742 3C21.1746 3 21.1751 3 21.1755 3C21.1759 3 21.1763 3 21.1767 3C21.1772 3 21.1776 3 21.178 3C21.1784 3 21.1789 3 21.1793 3C21.1797 3 21.1801 3 21.1806 3C21.181 3 21.1814 3 21.1819 3C21.1823 3 21.1827 3 21.1832 3C21.1836 3 21.1841 3 21.1845 3C21.1849 3 21.1854 3 21.1858 3C21.1863 3 21.1867 3 21.1872 3C21.1876 3 21.188 3 21.1885 3C21.1889 3 21.1894 3 21.1898 3C21.1903 3 21.1908 3 21.1912 3C21.1917 3 21.1921 3 21.1926 3C21.193 3 21.1935 3 21.1939 3C21.1944 3 21.1949 3 21.1953 3C21.1958 3 21.1963 3 21.1967 3C21.1972 3 21.1976 3 21.1981 3C21.1986 3 21.1991 3 21.1995 3C21.2 3 21.2005 3 21.2009 3C21.2014 3 21.2019 3 21.2024 3C21.2028 3 21.2033 3 21.2038 3C21.2043 3 21.2047 3 21.2052 3C21.2057 3 21.2062 3 21.2067 3C21.2072 3 21.2076 3 21.2081 3C21.2086 3 21.2091 3 21.2096 3C21.2101 3 21.2106 3 21.2111 3C21.2115 3 21.212 3 21.2125 3C21.213 3 21.2135 3 21.214 3C21.2145 3 21.215 3 21.2155 3C21.216 3 21.2165 3 21.217 3C21.2175 3 21.218 3 21.2185 3C21.219 3 21.2195 3 21.22 3C21.2205 3 21.221 3 21.2215 3C21.2221 3 21.2226 3 21.2231 3C21.2236 3 21.2241 3 21.2246 3C21.2251 3 21.2256 3 21.2262 3C21.2267 3 21.2272 3 21.2277 3C21.2282 3 21.2287 3 21.2293 3C21.2298 3 21.2303 3 21.2308 3C21.2313 3 21.2319 3 21.2324 3C21.2329 3 21.2334 3 21.234 3C21.2345 3 21.235 3 21.2356 3C21.2361 3 21.2366 3 21.2371 3C21.2377 3 21.2382 3 21.2387 3C21.2393 3 21.2398 3 21.2403 3C21.2409 3 21.2414 3 21.242 3C21.2425 3 21.243 3 21.2436 3C21.2441 3 21.2447 3 21.2452 3C21.2457 3 21.2463 3 21.2468 3C21.2474 3 21.2479 3 21.2485 3C21.249 3 21.2496 3 21.2501 3C21.2507 3 21.2512 3 21.2518 3C21.2523 3 21.2529 3 21.2534 3C21.254 3 21.2545 3 21.2551 3C21.2556 3 21.2562 3 21.2568 3C21.2573 3 21.2579 3 21.2584 3C21.259 3 21.2595 3 21.2601 3C21.2607 3 21.2612 3 21.2618 3C21.2624 3 21.2629 3 21.2635 3C21.2641 3 21.2646 3 21.2652 3C21.2658 3 21.2663 3 21.2669 3C21.2675 3 21.268 3 21.2686 3C21.2692 3 21.2697 3 21.2703 3C21.2709 3 21.2715 3 21.272 3C21.2726 3 21.2732 3 21.2738 3C21.2743 3 21.2749 3 21.2755 3C21.2761 3 21.2767 3 21.2772 3C21.2778 3 21.2784 3 21.279 3C21.2796 3 21.2802 3 21.2807 3C21.2813 3 21.2819 3 21.2825 3C21.2831 3 21.2837 3 21.2843 3C21.2848 3 21.2854 3 21.286 3C21.2866 3 21.2872 3 21.2878 3C21.2884 3 21.289 3 21.2896 3C21.2902 3 21.2908 3 21.2914 3C21.2919 3 21.2925 3 21.2931 3C21.2937 3 21.2943 3 21.2949 3C21.2955 3 21.2961 3 21.2967 3C21.2973 3 21.2979 3 21.2985 3C21.2991 3 21.2997 3 21.3003 3C21.3009 3 21.3015 3 21.3022 3C21.3028 3 21.3034 3 21.304 3C21.3046 3 21.3052 3 21.3058 3C21.3064 3 21.307 3 21.3076 3C21.3082 3 21.3088 3 21.3095 3C21.3101 3 21.3107 3 21.3113 3C21.3119 3 21.3125 3 21.3131 3C21.3137 3 21.3144 3 21.315 3C21.3156 3 21.3162 3 21.3168 3C21.3174 3 21.3181 3 21.3187 3C21.3193 3 21.3199 3 21.3205 3C21.3212 3 21.3218 3 21.3224 3C21.323 3 21.3237 3 21.3243 3C21.3249 3 21.3255 3 21.3262 3C21.3268 3 21.3274 3 21.328 3C21.3287 3 21.3293 3 21.3299 3C21.3305 3 21.3312 3 21.3318 3C21.3324 3 21.3331 3 21.3337 3C21.3343 3 21.3349 3 21.3356 3C21.3362 3 21.3368 3 21.3375 3C21.3381 3 21.3387 3 21.3394 3C21.34 3 21.3406 3 21.3413 3C21.3419 3 21.3426 3 21.3432 3C21.3438 3 21.3445 3 21.3451 3C21.3457 3 21.3464 3 21.347 3C21.3477 3 21.3483 3 21.3489 3C21.3496 3 21.3502 3 21.3509 3C21.3515 3 21.3522 3 21.3528 3C21.3534 3 21.3541 3 21.3547 3C21.3554 3 21.356 3 21.3567 3C21.3573 3 21.358 3 21.3586 3C21.3592 3 21.3599 3 21.3605 3C21.3612 3 21.3618 3 21.3625 3C21.3631 3 21.3638 3 21.3644 3C21.3651 3 21.3657 3 21.3664 3C21.367 3 21.3677 3 21.3683 3C21.369 3 21.3696 3 21.3703 3C21.371 3 21.3716 3 21.3723 3C21.3729 3 21.3736 3 21.3742 3C21.3749 3 21.3755 3 21.3762 3C21.3769 3 21.3775 3 21.3782 3C21.3788 3 21.3795 3 21.3801 3C21.3808 3 21.3815 3 21.3821 3C21.3828 3 21.3834 3 21.3841 3C21.3848 3 21.3854 3 21.3861 3C21.3867 3 21.3874 3 21.3881 3C21.3887 3 21.3894 3 21.39 3C21.3907 3 21.3914 3 21.392 3C21.3927 3 21.3934 3 21.394 3C21.3947 3 21.3954 3 21.396 3C21.3967 3 21.3974 3 21.398 3C21.3987 3 21.3994 3 21.4 3C21.4007 3 21.4014 3 21.402 3C21.4027 3 21.4034 3 21.404 3C21.4047 3 21.4054 3 21.406 3C21.4067 3 21.4074 3 21.408 3C21.4087 3 21.4094 3 21.4101 3C21.4107 3 21.4114 3 21.4121 3C21.4127 3 21.4134 3 21.4141 3C21.4148 3 21.4154 3 21.4161 3C21.4168 3 21.4174 3 21.4181 3C21.4188 3 21.4195 3 21.4201 3C21.4208 3 21.4215 3 21.4222 3C21.4228 3 21.4235 3 21.4242 3C21.4249 3 21.4255 3 21.4262 3C21.4269 3 21.4276 3 21.4283 3C21.4289 3 21.4296 3 21.4303 3C21.431 3 21.4316 3 21.4323 3C21.433 3 21.4337 3 21.4343 3C21.435 3 21.4357 3 21.4364 3C21.4371 3 21.4377 3 21.4384 3C21.4391 3 21.4398 3 21.4405 3C21.4411 3 21.4418 3 21.4425 3C21.4432 3 21.4439 3 21.4445 3C21.4452 3 21.4459 3 21.4466 3C21.4473 3 21.4479 3 21.4486 3C21.4493 3 21.45 3 21.4507 3C21.4514 3 21.452 3 21.4527 3C21.4534 3 21.4541 3 21.4548 3C21.4555 3 21.4561 3 21.4568 3C21.4575 3 21.4582 3 21.4589 3C21.4595 3 21.4602 3 21.4609 3C21.4616 3 21.4623 3 21.463 3C21.4637 3 21.4643 3 21.465 3C21.4657 3 21.4664 3 21.4671 3C21.4678 3 21.4684 3 21.4691 3C21.4698 3 21.4705 3 21.4712 3C21.4719 3 21.4726 3 21.4732 3C21.4739 3 21.4746 3 21.4753 3C21.476 3 21.4767 3 21.4774 3C21.478 3 21.4787 3 21.4794 3C21.4801 3 21.4808 3 21.4815 3C21.4822 3 21.4828 3 21.4835 3C21.4842 3 21.4849 3 21.4856 3C21.4863 3 21.487 3 21.4876 3C21.4883 3 21.489 3 21.4897 3C21.4904 3 21.4911 3 21.4918 3C21.4924 3 21.4931 3 21.4938 3C21.4945 3 21.4952 3 21.4959 3C21.4966 3 21.4973 3 21.4979 3C21.4986 3 21.4993 3 21.5 3C21.5007 3 21.5014 3 21.5021 3C21.5027 3 21.5034 3 21.5041 3C21.5048 3 21.5055 3 21.5062 3C21.5069 3 21.5076 3 21.5082 3C21.5089 3 21.5096 3 21.5103 3C21.511 3 21.5117 3 21.5124 3C21.513 3 21.5137 3 21.5144 3C21.5151 3 21.5158 3 21.5165 3C21.5172 3 21.5178 3 21.5185 3C21.5192 3 21.5199 3 21.5206 3C21.5213 3 21.522 3 21.5226 3C21.5233 3 21.524 3 21.5247 3C21.5254 3 21.5261 3 21.5268 3C21.5274 3 21.5281 3 21.5288 3C21.5295 3 21.5302 3 21.5309 3C21.5316 3 21.5322 3 21.5329 3C21.5336 3 21.5343 3 21.535 3C21.5357 3 21.5363 3 21.537 3C21.5377 3 21.5384 3 21.5391 3C21.5398 3 21.5405 3 21.5411 3C21.5418 3 21.5425 3 21.5432 3C21.5439 3 21.5445 3 21.5452 3C21.5459 3 21.5466 3 21.5473 3C21.548 3 21.5486 3 21.5493 3C21.55 3 21.5507 3 21.5514 3C21.5521 3 21.5527 3 21.5534 3C21.5541 3 21.5548 3 21.5555 3C21.5561 3 21.5568 3 21.5575 3C21.5582 3 21.5589 3 21.5595 3C21.5602 3 21.5609 3 21.5616 3C21.5623 3 21.5629 3 21.5636 3C21.5643 3 21.565 3 21.5657 3C21.5663 3 21.567 3 21.5677 3C21.5684 3 21.569 3 21.5697 3C21.5704 3 21.5711 3 21.5717 3C21.5724 3 21.5731 3 21.5738 3C21.5745 3 21.5751 3 21.5758 3C21.5765 3 21.5772 3 21.5778 3C21.5785 3 21.5792 3 21.5799 3C21.5805 3 21.5812 3 21.5819 3C21.5826 3 21.5832 3 21.5839 3C21.5846 3 21.5852 3 21.5859 3C21.5866 3 21.5873 3 21.5879 3C21.5886 3 21.5893 3 21.5899 3C21.5906 3 21.5913 3 21.592 3C21.5926 3 21.5933 3 21.594 3C21.5946 3 21.5953 3 21.596 3C21.5966 3 21.5973 3 21.598 3C21.5986 3 21.5993 3 21.6 3C21.6006 3 21.6013 3 21.602 3C21.6026 3 21.6033 3 21.604 3C21.6046 3 21.6053 3 21.606 3C21.6066 3 21.6073 3 21.608 3C21.6086 3 21.6093 3 21.61 3C21.6106 3 21.6113 3 21.6119 3C21.6126 3 21.6133 3 21.6139 3C21.6146 3 21.6152 3 21.6159 3C21.6166 3 21.6172 3 21.6179 3C21.6185 3 21.6192 3 21.6199 3C21.6205 3 21.6212 3 21.6218 3C21.6225 3 21.6231 3 21.6238 3C21.6245 3 21.6251 3 21.6258 3C21.6264 3 21.6271 3 21.6277 3C21.6284 3 21.629 3 21.6297 3C21.6304 3 21.631 3 21.6317 3C21.6323 3 21.633 3 21.6336 3C21.6343 3 21.6349 3 21.6356 3C21.6362 3 21.6369 3 21.6375 3C21.6382 3 21.6388 3 21.6395 3C21.6401 3 21.6408 3 21.6414 3C21.642 3 21.6427 3 21.6433 3C21.644 3 21.6446 3 21.6453 3C21.6459 3 21.6466 3 21.6472 3C21.6478 3 21.6485 3 21.6491 3C21.6498 3 21.6504 3 21.6511 3C21.6517 3 21.6523 3 21.653 3C21.6536 3 21.6543 3 21.6549 3C21.6555 3 21.6562 3 21.6568 3C21.6574 3 21.6581 3 21.6587 3C21.6594 3 21.66 3 21.6606 3C21.6613 3 21.6619 3 21.6625 3C21.6632 3 21.6638 3 21.6644 3C21.6651 3 21.6657 3 21.6663 3C21.6669 3 21.6676 3 21.6682 3C21.6688 3 21.6695 3 21.6701 3C21.6707 3 21.6713 3 21.672 3C21.6726 3 21.6732 3 21.6738 3C21.6745 3 21.6751 3 21.6757 3C21.6763 3 21.677 3 21.6776 3C21.6782 3 21.6788 3 21.6795 3C21.6801 3 21.6807 3 21.6813 3C21.6819 3 21.6826 3 21.6832 3C21.6838 3 21.6844 3 21.685 3C21.6856 3 21.6863 3 21.6869 3C21.6875 3 21.6881 3 21.6887 3C21.6893 3 21.6899 3 21.6905 3C21.6912 3 21.6918 3 21.6924 3C21.693 3 21.6936 3 21.6942 3C21.6948 3 21.6954 3 21.696 3C21.6966 3 21.6972 3 21.6978 3C21.6985 3 21.6991 3 21.6997 3C21.7003 3 21.7009 3 21.7015 3C21.7021 3 21.7027 3 21.7033 3C21.7039 3 21.7045 3 21.7051 3C21.7057 3 21.7063 3 21.7069 3C21.7075 3 21.7081 3 21.7086 3C21.7092 3 21.7098 3 21.7104 3C21.711 3 21.7116 3 21.7122 3C21.7128 3 21.7134 3 21.714 3C21.7146 3 21.7152 3 21.7157 3C21.7163 3 21.7169 3 21.7175 3C21.7181 3 21.7187 3 21.7193 3C21.7198 3 21.7204 3 21.721 3C21.7216 3 21.7222 3 21.7228 3C21.7233 3 21.7239 3 21.7245 3C21.7251 3 21.7257 3 21.7262 3C21.7268 3 21.7274 3 21.728 3C21.7285 3 21.7291 3 21.7297 3C21.7303 3 21.7308 3 21.7314 3C21.732 3 21.7325 3 21.7331 3C21.7337 3 21.7342 3 21.7348 3C21.7354 3 21.7359 3 21.7365 3C21.7371 3 21.7376 3 21.7382 3C21.7388 3 21.7393 3 21.7399 3C21.7405 3 21.741 3 21.7416 3C21.7421 3 21.7427 3 21.7432 3C21.7438 3 21.7444 3 21.7449 3C21.7455 3 21.746 3 21.7466 3C21.7471 3 21.7477 3 21.7482 3C21.7488 3 21.7493 3 21.7499 3C21.7504 3 21.751 3 21.7515 3C21.7521 3 21.7526 3 21.7532 3C21.7537 3 21.7543 3 21.7548 3C21.7553 3 21.7559 3 21.7564 3C21.757 3 21.7575 3 21.758 3C21.7586 3 21.7591 3 21.7597 3C21.7602 3 21.7607 3 21.7613 3C21.7618 3 21.7623 3 21.7629 3C21.7634 3 21.7639 3 21.7644 3C21.765 3 21.7655 3 21.766 3C21.7666 3 21.7671 3 21.7676 3C21.7681 3 21.7687 3 21.7692 3C21.7697 3 21.7702 3 21.7707 3C21.7713 3 21.7718 3 21.7723 3C21.7728 3 21.7733 3 21.7738 3C21.7744 3 21.7749 3 21.7754 3C21.7759 3 21.7764 3 21.7769 3C21.7774 3 21.7779 3 21.7785 3C21.779 3 21.7795 3 21.78 3C21.7805 3 21.781 3 21.7815 3C21.782 3 21.7825 3 21.783 3C21.7835 3 21.784 3 21.7845 3C21.785 3 21.7855 3 21.786 3C21.7865 3 21.787 3 21.7875 3C21.788 3 21.7885 3 21.7889 3C21.7894 3 21.7899 3 21.7904 3C21.7909 3 21.7914 3 21.7919 3C21.7924 3 21.7928 3 21.7933 3C21.7938 3 21.7943 3 21.7948 3C21.7953 3 21.7957 3 21.7962 3C21.7967 3 21.7972 3 21.7976 3C21.7981 3 21.7986 3 21.7991 3C21.7995 3 21.8 3 21.8005 3C21.8009 3 21.8014 3 21.8019 3C21.8024 3 21.8028 3 21.8033 3C21.8037 3 21.8042 3 21.8047 3C21.8051 3 21.8056 3 21.8061 3C21.8065 3 21.807 3 21.8074 3C21.8079 3 21.8083 3 21.8088 3C21.8092 3 21.8097 3 21.8102 3C21.8106 3 21.8111 3 21.8115 3C21.812 3 21.8124 3 21.8128 3C21.8133 3 21.8137 3 21.8142 3C21.8146 3 21.8151 3 21.8155 3C21.8159 3 21.8164 3 21.8168 3C21.8173 3 21.8177 3 21.8181 3C21.8186 3 21.819 3 21.8194 3C21.8199 3 21.8203 3 21.8207 3C21.8211 3 21.8216 3 21.822 3C21.8224 3 21.8228 3 21.8233 3C21.8237 3 21.8241 3 21.8245 3C21.8249 3 21.8254 3 21.8258 3C21.8262 3 21.8266 3 21.827 3C21.8274 3 21.8279 3 21.8283 3C21.8287 3 21.8291 3 21.8295 3C21.8299 3 21.8303 3 21.8307 3C21.8311 3 21.8315 3 21.8319 3C21.8323 3 21.8327 3 21.8331 3C21.8335 3 21.8339 3 21.8343 3C21.8347 3 21.8351 3 21.8355 3C21.8359 3 21.8363 3 21.8367 3C21.8371 3 21.8374 3 21.8378 3C21.8382 3 21.8386 3 21.839 3C21.8394 3 21.8397 3 21.8401 3C21.8405 3 21.8409 3 21.8413 3C21.8416 3 21.842 3 21.8424 3C21.8428 3 21.8431 3 21.8435 3C21.8439 3 21.8442 3 21.8446 3C21.845 3 21.8453 3 21.8457 3C21.8461 3 21.8464 3 21.8468 3C21.8472 3 21.8475 3 21.8479 3C21.8482 3 21.8486 3 21.8489 3C21.8493 3 21.8496 3 21.85 3C21.8503 3 21.8507 3 21.851 3C21.8514 3 21.8517 3 21.8521 3C21.8524 3 21.8528 3 21.8531 3C21.8535 3 21.8538 3 21.8541 3C21.8545 3 21.8548 3 21.8551 3C21.8555 3 21.8558 3 21.8561 3C21.8565 3 21.8568 3 21.8571 3C21.8574 3 21.8578 3 21.8581 3C21.8584 3 21.8587 3 21.8591 3C21.8594 3 21.8597 3 21.86 3C21.8603 3 21.8606 3 21.861 3C21.8613 3 21.8616 3 21.8619 3C21.8622 3 21.8625 3 21.8628 3C21.8631 3 21.8634 3 21.8637 3C21.864 3 21.8643 3 21.8646 3C21.8649 3 21.8652 3 21.8655 3C21.8658 3 21.8661 3 21.8664 3C21.8667 3 21.867 3 21.8673 3C21.8676 3 21.8679 3 21.8681 3C21.8684 3 21.8687 3 21.869 3C21.8693 3 21.8696 3 21.8698 3C21.8701 3 21.8704 3 21.8707 3C21.8709 3 21.8712 3 21.8715 3C21.8717 3 21.872 3 21.8723 3C21.8726 3 21.8728 3 21.8731 3C21.8733 3 21.8736 3 21.8739 3C21.8741 3 21.8744 3 21.8746 3C21.8749 3 21.8751 3 21.8754 3C21.8756 3 21.8759 3 21.8761 3C21.8764 3 21.8766 3 21.8769 3C21.8771 3 21.8774 3 21.8776 3C21.8779 3 21.8781 3 21.8783 3C21.8786 3 21.8788 3 21.879 3C21.8793 3 21.8795 3 21.8797 3C21.88 3 21.8802 3 21.8804 3C21.8806 3 21.8809 3 21.8811 3C21.8813 3 21.8815 3 21.8817 3C21.8819 3 21.8822 3 21.8824 3C21.8826 3 21.8828 3 21.883 3C21.8832 3 21.8834 3 21.8836 3C21.8838 3 21.884 3 21.8842 3C21.8844 3 21.8846 3 21.8848 3C21.885 3 21.8852 3 21.8854 3C21.8856 3 21.8858 3 21.886 3C21.8862 3 21.8864 3 21.8866 3C21.8868 3 21.8869 3 21.8871 3C21.8873 3 21.8875 3 21.8877 3C21.8878 3 21.888 3 21.8882 3C21.8884 3 21.8885 3 21.8887 3C21.8889 3 21.889 3 21.8892 3C21.8894 3 21.8895 3 21.8897 3C21.8898 3 21.89 3 21.8902 3C21.8903 3 21.8905 3 21.8906 3V0ZM21.1094 0C19.2892 0 12.9264 0.520751 9.8964 7.2937L12.6349 8.5188C14.9173 3.41675 19.6483 3 21.1094 3V0ZM9.90511 7.27458C9.25082 8.68383 9.10173 10.5302 9.09182 12.1844C9.08168 13.8779 9.22397 15.6577 9.29932 16.9762L12.2944 16.805C12.2135 15.3892 12.0824 13.7705 12.0918 12.2023C12.1014 10.5948 12.2648 9.31617 12.6261 8.53792L9.90511 7.27458ZM10.1261 15.549C10.0875 15.5682 10.0509 15.5877 10.031 15.5983C10.0063 15.6115 9.9932 15.6184 9.98 15.6251C9.95681 15.637 9.952 15.6385 9.95567 15.6371C9.96059 15.6352 9.97169 15.6314 9.98634 15.6285C10.0013 15.6255 10.0119 15.625 10.0156 15.625V18.625C10.4221 18.625 10.761 18.5416 11.0326 18.4371C11.2478 18.3543 11.5124 18.2099 11.4677 18.2323L10.1261 15.549ZM10.0156 15.625C9.79624 15.625 9.50096 15.5745 8.94721 15.2669L7.49029 17.8894C8.34279 18.363 9.14126 18.625 10.0156 18.625V15.625ZM8.79567 15.1935C7.84013 14.7954 6.78663 14.9545 6.00813 15.3138C5.23785 15.6694 4.34034 16.4153 4.15807 17.6L7.12318 18.0562C7.11016 18.1408 7.07545 18.1718 7.09248 18.1529C7.11247 18.1307 7.16744 18.0829 7.26531 18.0377C7.36172 17.9932 7.46381 17.9681 7.54925 17.962C7.63741 17.9557 7.66415 17.972 7.64183 17.9627L8.79567 15.1935ZM4.19834 17.416C3.97784 18.1878 4.14996 19.0235 4.69234 19.7342C5.20356 20.4041 6.00723 20.9274 7.04715 21.3344L8.14035 18.5406C7.38339 18.2444 7.13238 17.9865 7.07719 17.9142C7.05564 17.886 7.07966 17.9074 7.09513 17.9811C7.11072 18.0552 7.10975 18.1463 7.08291 18.2402L4.19834 17.416ZM6.98454 21.3082C7.24523 21.4241 7.57112 21.5289 7.80448 21.606C8.07445 21.6951 8.3181 21.7771 8.54366 21.8704C8.77261 21.9651 8.92424 22.0484 9.01553 22.1151C9.10739 22.1823 9.06395 22.1785 9.02163 22.0769L11.7909 20.9231C11.3397 19.8402 10.2631 19.3352 9.69071 19.0984C9.34987 18.9573 9.00758 18.8439 8.74532 18.7573C8.44646 18.6586 8.29383 18.6072 8.20296 18.5668L6.98454 21.3082ZM9.01354 22.0571C9.01372 22.0575 9.01144 22.0516 9.00992 22.0419C9.00836 22.032 9.00919 22.0283 9.00868 22.0347C9.00766 22.0474 8.99821 22.1338 8.90836 22.3136L11.5916 23.6552C12.0567 22.7252 12.1442 21.8059 11.799 20.9429L9.01354 22.0571ZM9.00192 22.1523C8.69158 22.6178 8.34934 23.6363 7.07477 25.1392C5.89849 26.5261 4.22154 27.8675 1.97027 28.2213L2.43598 31.1849C5.65346 30.6793 7.92182 28.7786 9.36273 27.0796C10.7053 25.4965 11.6522 23.5853 11.4981 23.8164L9.00192 22.1523ZM1.90895 28.2323C0.806102 28.4528 0 29.4682 0 30.5625H3C3 30.7597 2.92724 30.8901 2.86925 30.9615C2.81039 31.034 2.694 31.1347 2.4973 31.174L1.90895 28.2323ZM1.5 32.0625H1.57812V29.0625H1.5V32.0625ZM0.0798228 30.6338C0.127821 31.6418 0.721391 32.3501 1.28236 32.7919C1.83905 33.2304 2.51929 33.5376 3.1408 33.7611C4.38872 34.2099 5.82684 34.465 6.60996 34.6141L7.17129 31.6671C6.31379 31.5038 5.13472 31.2901 4.15608 30.9381C3.66431 30.7613 3.32892 30.5851 3.13854 30.4351C2.95244 30.2885 3.06749 30.3035 3.07643 30.4912L0.0798228 30.6338ZM5.82996 34.2013C5.66221 34.0335 5.59309 33.8747 5.59047 33.8691C5.57517 33.8364 5.57387 33.8272 5.58459 33.8597C5.60603 33.9247 5.63618 34.0341 5.67955 34.2076C5.75617 34.514 5.87022 35.0115 6.00076 35.4466L8.87424 34.5846C8.77041 34.2385 8.68914 33.8766 8.58998 33.4799C8.54546 33.3019 8.4926 33.0987 8.43348 32.9196C8.40392 32.83 8.36294 32.7158 8.30827 32.5989C8.26629 32.5091 8.1581 32.2868 7.95129 32.08L5.82996 34.2013ZM5.98229 35.3794C6.06716 35.7189 6.25647 36.1878 6.67769 36.581C7.12942 37.0026 7.72191 37.2188 8.375 37.2188V34.2188C8.375 34.2188 8.37578 34.2188 8.37731 34.2188C8.37883 34.2189 8.3811 34.219 8.38409 34.2192C8.39007 34.2197 8.39882 34.2207 8.41004 34.2226C8.43284 34.2265 8.46395 34.2339 8.50082 34.2477C8.57884 34.2769 8.65701 34.3247 8.72465 34.3878C8.8529 34.5075 8.88596 34.6248 8.89271 34.6518L5.98229 35.3794ZM8.375 37.2188C8.88033 37.2188 9.51312 37.0644 9.86479 36.9954C10.3164 36.9069 10.816 36.8281 11.4219 36.8281V33.8281C10.5434 33.8281 9.83203 33.9447 9.28755 34.0515C8.64313 34.1778 8.49467 34.2188 8.375 34.2188V37.2188ZM11.4219 36.8281C12.3135 36.8281 12.7855 36.9302 13.1804 37.0942C13.6291 37.2806 14.0747 37.582 14.925 38.1894L16.6687 35.7481C15.8785 35.1837 15.1522 34.6647 14.3313 34.3237C13.4567 33.9605 12.5615 33.8281 11.4219 33.8281V36.8281ZM14.9648 38.2168C16.0318 38.9282 18.4976 40.7687 21.5936 40.5752L21.4064 37.581C19.5024 37.7 17.9057 36.5718 16.6289 35.7207L14.9648 38.2168ZM21.4516 40.5773C24.3906 40.6721 26.3805 39.3984 28.1263 38.2081L26.4362 35.7294C24.7445 36.8828 23.4531 37.6404 21.5484 37.5789L21.4516 40.5773ZM28.1531 38.1894C29.0035 37.582 29.4491 37.2806 29.8977 37.0942C30.2926 36.9302 30.7646 36.8281 31.6562 36.8281V33.8281C30.5166 33.8281 29.6214 33.9605 28.7469 34.3237C27.9259 34.6647 27.1997 35.1837 26.4094 35.7481L28.1531 38.1894ZM31.6562 36.8281C32.3289 36.8281 32.8288 36.8943 33.2603 36.9648C33.6311 37.0253 34.1918 37.1406 34.7031 37.1406V34.1406C34.5114 34.1406 34.3299 34.0997 33.7437 34.004C33.2181 33.9182 32.5461 33.8281 31.6562 33.8281V36.8281ZM34.7031 37.1406C35.1744 37.1406 35.746 37.0411 36.2477 36.6648C36.7766 36.2681 37.0323 35.7118 37.1202 35.1841L34.161 34.6909C34.1647 34.669 34.1789 34.603 34.2268 34.5167C34.2773 34.4258 34.352 34.3366 34.4477 34.2648C34.6368 34.123 34.7787 34.1406 34.7031 34.1406V37.1406ZM37.0636 35.4118C37.2039 34.991 37.3186 34.5081 37.3986 34.188C37.4429 34.0107 37.476 33.8841 37.5036 33.7938C37.5171 33.7497 37.5234 33.7336 37.5224 33.7364C37.5215 33.7387 37.5157 33.7531 37.5044 33.776C37.494 33.7973 37.4717 33.8403 37.4356 33.8946L34.9394 32.2304C34.7637 32.494 34.672 32.7945 34.6346 32.9171C34.5816 33.0905 34.5317 33.2862 34.4881 33.4604C34.3924 33.8435 34.3117 34.1809 34.2176 34.4632L37.0636 35.4118ZM36.41 34.5459C38.0225 34.304 39.3656 33.9895 40.3925 33.5741C41.3548 33.1849 42.3707 32.5761 42.8065 31.53L40.0373 30.3762C40.0825 30.2677 40.0436 30.4791 39.2676 30.793C38.5563 31.0808 37.4775 31.3522 35.965 31.5791L36.41 34.5459Z" fill="black" mask="url(#path-1-outside-1_1_3019)"/>
</svg>
