<svg width="40" height="33" viewBox="0 0 40 33" fill="none" xmlns="http://www.w3.org/2000/svg">
<path d="M35.8594 8.04688C37.4219 6.875 38.8281 5.46875 39.9219 3.82812C38.5156 4.45312 36.875 4.92188 35.2344 5.07812C36.9531 4.0625 38.2031 2.5 38.8281 0.546875C37.2656 1.48438 35.4688 2.1875 33.6719 2.57812C32.1094 0.9375 30 0 27.6562 0C23.125 0 19.4531 3.67188 19.4531 8.20312C19.4531 8.82812 19.5312 9.45312 19.6875 10.0781C12.8906 9.6875 6.79688 6.40625 2.73438 1.48438C2.03125 2.65625 1.64062 4.0625 1.64062 5.625C1.64062 8.4375 3.04688 10.9375 5.3125 12.4219C3.98438 12.3438 2.65625 12.0312 1.5625 11.4062V11.4844C1.5625 15.4688 4.375 18.75 8.125 19.5312C7.5 19.6875 6.71875 19.8438 6.01562 19.8438C5.46875 19.8438 5 19.7656 4.45312 19.6875C5.46875 22.9688 8.51562 25.3125 12.1094 25.3906C9.29688 27.5781 5.78125 28.9062 1.95312 28.9062C1.25 28.9062 0.625 28.8281 0 28.75C3.59375 31.0938 7.89062 32.4219 12.5781 32.4219C27.6562 32.4219 35.8594 20 35.8594 9.14062C35.8594 8.75 35.8594 8.4375 35.8594 8.04688Z" fill="white"/>
</svg>
