<svg width="43" height="30" viewBox="0 0 43 30" fill="none" xmlns="http://www.w3.org/2000/svg">
<path d="M41.7969 4.76562C41.3281 2.89062 39.8438 1.40625 38.0469 0.9375C34.6875 0 21.4062 0 21.4062 0C21.4062 0 8.04688 0 4.6875 0.9375C2.89062 1.40625 1.40625 2.89062 0.9375 4.76562C0 8.04688 0 15.0781 0 15.0781C0 15.0781 0 22.0312 0.9375 25.3906C1.40625 27.2656 2.89062 28.6719 4.6875 29.1406C8.04688 30 21.4062 30 21.4062 30C21.4062 30 34.6875 30 38.0469 29.1406C39.8438 28.6719 41.3281 27.2656 41.7969 25.3906C42.7344 22.0312 42.7344 15.0781 42.7344 15.0781C42.7344 15.0781 42.7344 8.04688 41.7969 4.76562ZM17.0312 21.4062V8.75L28.125 15.0781L17.0312 21.4062Z" fill="white"/>
</svg>
